<svg xmlns="http://www.w3.org/2000/svg" width="40" height="40" viewBox="0 0 40 40">
    <g fill="none" fill-rule="nonzero">
        <path fill="#297FCA" d="M27.5 38.333c-5.973 0-10.833-4.86-10.833-10.833s4.86-10.833 10.833-10.833 10.833 4.86 10.833 10.833-4.86 10.833-10.833 10.833zm6.59-16.438a.826.826 0 0 0-.158.025c-1.66.268-4.15-.012-5.847-1.68a.834.834 0 0 0-1.168 0c-1.695 1.67-4.182 1.95-5.845 1.68a.989.989 0 0 0-.174-.027.818.818 0 0 0-.885.685.819.819 0 0 0 .029.404c.311 4.701 2.791 10.801 7.005 13.55a.824.824 0 0 0 .908 0c4.228-2.757 6.71-8.892 7.008-13.599a.855.855 0 0 0 .019-.306c-.052-.439-.465-.779-.892-.732z"/>
        <path fill="#353638" d="M39.975 9.368a.835.835 0 0 0-.808-1.035h-2.5V4.167a.834.834 0 0 0-.834-.834H13.917L10.113.192A.831.831 0 0 0 9.583 0H.833A.834.834 0 0 0 0 .833V27.5c0 .035.015.065.02.098a.802.802 0 0 0 .122.34c.015.025.018.055.036.077.01.012.025.017.035.028.055.062.12.11.19.154.03.018.054.043.085.058a.824.824 0 0 0 .345.078h14.209C15.473 34.837 20.888 40 27.5 40 34.393 40 40 34.393 40 27.5c0-2.878-.987-5.525-2.628-7.64l2.603-10.492zM9.283 1.667l3.802 3.141c.15.124.338.192.532.192H35v3.333H5.367a.833.833 0 0 0-.809.634L1.667 20.658V1.667h7.616zM6.02 10h32.082l-2.08 8.38C33.787 16.29 30.795 15 27.5 15c-6.612 0-12.027 5.163-12.458 11.667H1.898L6.02 10zM27.5 38.333c-5.973 0-10.833-4.86-10.833-10.833s4.86-10.833 10.833-10.833 10.833 4.86 10.833 10.833-4.86 10.833-10.833 10.833z"/>
        <path fill="#353638" d="M34.09 21.895a.826.826 0 0 0-.158.025c-1.66.268-4.15-.012-5.847-1.68a.834.834 0 0 0-1.168 0c-1.695 1.67-4.182 1.95-5.845 1.68a.989.989 0 0 0-.174-.027.818.818 0 0 0-.885.685.819.819 0 0 0 .029.404c.311 4.701 2.791 10.801 7.005 13.55a.824.824 0 0 0 .908 0c4.228-2.757 6.71-8.892 7.008-13.599a.855.855 0 0 0 .019-.306c-.052-.439-.465-.779-.892-.732zM27.5 34.817c-2.883-2.172-5.215-6.732-5.725-11.154 1.772.095 3.972-.338 5.725-1.72 1.753 1.382 3.953 1.805 5.725 1.72-.51 4.422-2.842 8.982-5.725 11.154z"/>
    </g>
</svg>
